<svg id="JF_Logo_v2_-_white" data-name="JF Logo v2 - white" xmlns="http://www.w3.org/2000/svg" width="9353.709" height="3441.897" viewBox="0 0 9353.709 3441.897">
  <path id="Path_43" data-name="Path 43" d="M3066.757,997v67.64c-139.661,0-280.222,114.311-280.222,367.187V3058.4c0,952.239-426.581,1285.671-932.495,1380.5l-12.4-67.157c266.887-122.4,542.278-452.735,542.278-1310.118V1435.048c0-254.454-138.5-367.187-281.575-370.408V997.451Z" transform="translate(-1841.64 -997)" fill="#fff"/>
  <path id="Path_44" data-name="Path 44" d="M2267.193,997.32h1007.96v701.134h-57.977C3204.293,1167,2676.059,1063.929,2267,1063.929Zm496.025,942.7H2821v821.34h-57.783c-22.1-142.365-69.122-263.666-167.683-318.873s-248.624-44.353-325.122-53.467v-76.659c44.868-5.347,222.052-1.933,328.343-72.793C2695.385,2181.6,2743.7,2052.758,2763.218,1940.025Z" transform="translate(-896.94 -996.289)" fill="#fff"/>
  <path id="Path_45" data-name="Path 45" d="M487.753-23.794H163.476V236.959H462.343v121.6H163.476v363H19.487V-146H487.753ZM1161.332,721.56H1013.109V-146h148.224ZM2303.177-23.794H2053.919V721.56H1909.931V-23.794H1661.278V-146h641.9ZM3537.586,721.56h-157.3L2965.866,83.9a282.719,282.719,0,0,1-26.015-50.215h-3.63q4.841,27.83,4.84,119.184v568.7H2801.913V-146H2969.5L3370,476.537q25.41,38.72,32.67,53.24h2.42q-6.05-34.485-6.05-116.764V-146h138.544Zm1073.481,0H4124.047V-146h467.661V-23.794H4268.035V221.834H4566.3v121.6H4268.035V599.956h343.032ZM5097.1,687.075V538.852q19.965,18.15,47.492,32.67a366.931,366.931,0,0,0,58.382,24.5,460.072,460.072,0,0,0,61.709,15.427,329,329,0,0,0,56.869,5.445q90.75,0,135.216-30.25t44.467-87.724q0-30.855-14.822-53.542t-41.442-41.442q-26.62-18.755-62.617-36t-77.137-36q-44.164-23.595-82.279-47.795t-66.247-53.542a224.006,224.006,0,0,1-44.165-66.247q-16.033-36.9-16.033-86.514,0-61.1,27.527-106.177a232.484,232.484,0,0,1,72.6-74.414q45.073-29.342,102.546-43.56a486.955,486.955,0,0,1,117.369-14.217q136.124,0,198.438,30.855V12.506q-73.81-53.24-189.968-53.239a340.381,340.381,0,0,0-63.827,6.05q-31.762,6.05-56.87,19.965a123.1,123.1,0,0,0-40.837,35.695q-15.731,21.78-15.73,52.635,0,29.04,12.1,50.215t35.392,38.72q23.292,17.545,56.87,34.182t77.741,36q45.375,23.595,85.607,49.61a403.568,403.568,0,0,1,70.784,57.475,252.554,252.554,0,0,1,48.4,69.877q17.848,38.417,17.848,87.422,0,65.944-26.62,111.319a214.545,214.545,0,0,1-71.691,73.809q-45.073,28.435-103.757,41.14t-124.024,12.7q-21.78,0-53.542-3.328t-65.037-9.68a598.227,598.227,0,0,1-62.919-15.427Q5115.248,698.57,5097.1,687.075Zm1046.256,0V538.852q19.965,18.15,47.492,32.67a366.988,366.988,0,0,0,58.382,24.5,460.1,460.1,0,0,0,61.71,15.427,328.989,328.989,0,0,0,56.869,5.445q90.749,0,135.217-30.25t44.467-87.724q0-30.855-14.822-53.542t-41.442-41.442q-26.619-18.755-62.617-36t-77.136-36q-44.165-23.595-82.28-47.795t-66.247-53.542a224.025,224.025,0,0,1-44.165-66.247q-16.032-36.9-16.032-86.514,0-61.1,27.528-106.177a232.478,232.478,0,0,1,72.6-74.414q45.072-29.342,102.546-43.56a486.959,486.959,0,0,1,117.37-14.217q136.124,0,198.438,30.855V12.506q-73.811-53.24-189.968-53.239a340.377,340.377,0,0,0-63.827,6.05q-31.762,6.05-56.87,19.965a123.108,123.108,0,0,0-40.837,35.695Q6294,42.756,6294,73.611q0,29.04,12.1,50.215t35.392,38.72q23.292,17.545,56.87,34.182t77.742,36q45.375,23.595,85.607,49.61a403.572,403.572,0,0,1,70.784,57.475,252.575,252.575,0,0,1,48.4,69.877q17.847,38.417,17.848,87.422,0,65.944-26.621,111.319a214.545,214.545,0,0,1-71.691,73.809q-45.072,28.435-103.757,41.14t-124.023,12.7q-21.78,0-53.542-3.328t-65.037-9.68a598.217,598.217,0,0,1-62.919-15.427Q6161.5,698.57,6143.354,687.075Z" transform="translate(2654.969 1090.308)" fill="#fff"/>
</svg>
