<svg id="logo" xmlns="http://www.w3.org/2000/svg" width="1955.485" height="1068.6" viewBox="0 0 1955.485 1068.6">
  <path id="Path_43" data-name="Path 43" d="M2222,997v21c-43.36,0-87,35.49-87,114v505c0,295.64-132.44,399.16-289.51,428.6l-3.85-20.85c82.86-38,168.36-140.56,168.36-406.75V1133c0-79-43-114-87.42-115V997.14Z" transform="translate(-1841.64 -997)"/>
  <path id="Path_44" data-name="Path 44" d="M2267.06,997.32H2580V1215h-18c-4-165-168-197-295-197Zm154,292.68H2439v255h-17.94c-6.86-44.2-21.46-81.86-52.06-99s-77.19-13.77-100.94-16.6v-23.8c13.93-1.66,68.94-.6,101.94-22.6C2400,1365,2415,1325,2421.06,1290Z" transform="translate(-1841.64 -997)"/>
  <path id="Path_45" data-name="Path 45" d="M104.7-135.64H45.691v47.452h54.388v22.13H45.691V0h-26.2V-157.88H104.7ZM227.282,0H200.308V-157.88h26.974ZM435.076-135.64h-45.36V0h-26.2V-135.64h-45.25v-22.24H435.076ZM659.715,0H631.09L555.673-116.043a51.451,51.451,0,0,1-4.734-9.138h-.661q.881,5.065.881,21.689V0H525.836V-157.88h30.5L629.218-44.59q4.624,7.046,5.945,9.689h.44q-1.1-6.276-1.1-21.249V-157.88h25.212ZM855.068,0H766.44V-157.88h85.105v22.24h-58.9v44.7h54.278v22.13H792.643V-22.13h62.425Zm88.448-6.276V-33.249A41.661,41.661,0,0,0,952.16-27.3a66.78,66.78,0,0,0,10.624,4.459,83.728,83.728,0,0,0,11.23,2.807,59.87,59.87,0,0,0,10.349.991q16.515,0,24.607-5.5t8.092-15.964a17.412,17.412,0,0,0-2.7-9.744,28.29,28.29,0,0,0-7.542-7.542,79.244,79.244,0,0,0-11.4-6.551Q988.877-67.49,981.39-70.9q-8.037-4.294-14.973-8.7a64.444,64.444,0,0,1-12.056-9.744,40.766,40.766,0,0,1-8.037-12.056,39.262,39.262,0,0,1-2.918-15.744,36.339,36.339,0,0,1,5.009-19.322,42.307,42.307,0,0,1,13.212-13.542,60.567,60.567,0,0,1,18.662-7.927,88.616,88.616,0,0,1,21.359-2.587q24.772,0,36.112,5.615v25.873q-13.432-9.689-34.571-9.689a61.944,61.944,0,0,0-11.615,1.1,34.53,34.53,0,0,0-10.349,3.633,22.4,22.4,0,0,0-7.432,6.5,15.921,15.921,0,0,0-2.863,9.578,18.114,18.114,0,0,0,2.2,9.138,23.572,23.572,0,0,0,6.441,7.046,65.807,65.807,0,0,0,10.349,6.221q6.11,3.028,14.148,6.551,8.257,4.294,15.579,9.028a73.44,73.44,0,0,1,12.881,10.459,45.961,45.961,0,0,1,8.808,12.716,37.343,37.343,0,0,1,3.248,15.909q0,12-4.844,20.258A39.044,39.044,0,0,1,1026.7-7.156,58.111,58.111,0,0,1,1007.814.33a106.458,106.458,0,0,1-22.57,2.312,96.106,96.106,0,0,1-9.744-.606q-5.78-.606-11.836-1.762a108.863,108.863,0,0,1-11.45-2.807A36.251,36.251,0,0,1,943.517-6.276Zm190.4,0V-33.249a41.658,41.658,0,0,0,8.643,5.945,66.782,66.782,0,0,0,10.624,4.459,83.728,83.728,0,0,0,11.23,2.807,59.869,59.869,0,0,0,10.349.991q16.515,0,24.607-5.5t8.092-15.964a17.412,17.412,0,0,0-2.7-9.744,28.289,28.289,0,0,0-7.542-7.542,79.235,79.235,0,0,0-11.4-6.551q-6.551-3.138-14.037-6.551-8.037-4.294-14.973-8.7a64.447,64.447,0,0,1-12.056-9.744,40.767,40.767,0,0,1-8.037-12.056,39.262,39.262,0,0,1-2.918-15.744,36.338,36.338,0,0,1,5.01-19.322,42.307,42.307,0,0,1,13.212-13.542,60.567,60.567,0,0,1,18.661-7.927,88.617,88.617,0,0,1,21.359-2.587q24.772,0,36.112,5.615v25.873q-13.432-9.689-34.571-9.689a61.943,61.943,0,0,0-11.615,1.1,34.529,34.529,0,0,0-10.349,3.633,22.4,22.4,0,0,0-7.432,6.5,15.921,15.921,0,0,0-2.863,9.578,18.114,18.114,0,0,0,2.2,9.138,23.572,23.572,0,0,0,6.441,7.046,65.8,65.8,0,0,0,10.349,6.221q6.11,3.028,14.148,6.551,8.257,4.294,15.579,9.028a73.44,73.44,0,0,1,12.881,10.459,45.961,45.961,0,0,1,8.808,12.716,37.343,37.343,0,0,1,3.248,15.909q0,12-4.844,20.258a39.044,39.044,0,0,1-13.047,13.432A58.11,58.11,0,0,1,1198.213.33a106.457,106.457,0,0,1-22.57,2.312,96.107,96.107,0,0,1-9.744-.606q-5.78-.606-11.836-1.762a108.87,108.87,0,0,1-11.45-2.807A36.252,36.252,0,0,1,1133.916-6.276Z" transform="translate(720.5 501.35)"/>
</svg>
