<svg id="Check_Icon" xmlns="http://www.w3.org/2000/svg" width="42" height="42" viewBox="0 0 42 42">
  <g id="Ellipse_43" data-name="Ellipse 43" fill="none" stroke="#0d98c9" stroke-width="2">
    <circle cx="21" cy="21" r="21" stroke="none"/>
    <circle cx="21" cy="21" r="20" fill="none"/>
  </g>
  <g id="Union_5" data-name="Union 5" transform="translate(9.141 12.271)" fill="#0d98c9">
    <path d="M 8.072003364562988 16.79937934875488 L 0.7071595788002014 9.43482780456543 L 1.562602877616882 8.579565048217773 L 7.733355045318604 14.75031757354736 L 8.080784797668457 15.09775733947754 L 8.434235572814941 14.75643730163574 L 22.98305511474609 0.7070115804672241 L 23.82322883605957 1.577118515968323 L 8.416025161743164 16.45545768737793 L 8.412885665893555 16.45848846435547 L 8.409805297851563 16.46157836914063 L 8.072003364562988 16.79937934875488 Z" stroke="none"/>
    <path d="M 8.072154998779297 16.09244537353516 L 23.11624717712402 1.564754009246826 L 22.97069549560547 1.414015412330627 L 8.78155517578125 15.11610794067383 L 8.074665069580078 15.79873752593994 L 7.379795074462891 15.10387802124023 L 1.562555551528931 9.286638259887695 L 1.41430389881134 9.434858322143555 L 8.072154998779297 16.09244537353516 M 8.072005271911621 17.50647735595703 L 5.247497483651387e-06 9.434797286987305 L 1.56263530254364 7.87249755859375 L 8.086905479431152 14.39676761627197 L 22.99541473388672 -2.275695806019939e-06 L 24.53021430969238 1.589477777481079 L 8.763355255126953 16.81512832641602 L 8.072005271911621 17.50647735595703 Z" stroke="none" fill="#0d98c9"/>
  </g>
</svg>
